<?xml version="1.0" encoding="UTF-8"?>
<svg id="Layer_1" xmlns="http://www.w3.org/2000/svg" version="1.1" viewBox="0 0 945.93 104">
  <!-- Generator: Adobe Illustrator 30.0.0, SVG Export Plug-In . SVG Version: 2.1.1 Build 123)  -->
  <defs>
    <style>
      .st0 {
        fill: #f6f4f1;
      }
    </style>
  </defs>
  <g>
    <path class="st0" d="M188.02,0h-4.48v.58l.43,1.44c1.25,4.62,2.24,8.59,2.96,11.91.72,3.32,1.08,6.91,1.08,10.76v53.85c0,5.2-.51,9.31-1.52,12.34-1.01,3.03-2.58,4.55-4.69,4.55-2.79,0-5.92-2.48-9.38-7.43-3.46-4.96-7.46-11.62-11.98-19.99l-4.04-7.07h-1.73l.43,39.56c4.42.39,9.36,1.54,15.09,2.31,5.72.77,10.61,1.15,14.65,1.15,11.26,0,19.42-2.43,24.47-9.02,5.05-6.59,7.58-14.89,7.58-24.9V24.69c0-3.85.36-7.44,1.08-10.76.72-3.32,1.71-7.29,2.96-11.91l.43-1.44v-.58h-33.35Z"/>
    <path class="st0" d="M322.86,0h-7.8l-23.33,64.61L264.82,0h-34.65v.58l.58,1.44c4.04,8.76,6.06,16.31,6.06,22.67v42.15c0,5.77-.82,11.5-2.45,17.18-1.64,5.68-3.51,11.31-5.63,16.89-.29.58-.51,1.04-.65,1.37-.14.34-.22.6-.22.79v.87h25.26v-.87c0-.19-.07-.46-.22-.79-.14-.34-.36-.79-.65-1.37-2.12-5.58-3.99-11.21-5.63-16.89-1.64-5.68-2.45-11.41-2.45-17.18V24.69c0-1.04.03-2.05.08-3.05l33.27,82.31h7.94l29.6-82.27v57.59c0,3.85-.36,7.44-1.08,10.76-.72,3.32-1.71,7.29-2.96,11.91l-.43,1.44v.58h37.82v-.58l-.43-1.44c-1.25-4.62-2.24-8.59-2.96-11.91-.72-3.32-1.08-6.9-1.08-10.76V24.69c0-3.85.36-7.44,1.08-10.76.72-3.32,1.71-7.29,2.96-11.91l.43-1.44v-.58h-25.55Z"/>
    <path class="st0" d="M408.18,0c-10.01,0-18.96.77-26.85,5.2-7.89,4.43-14.08,10.71-18.55,18.84-4.48,8.13-6.71,17.49-6.71,28.08s2.21,19.92,6.64,28.01c4.43,8.08,10.51,14.36,18.26,18.84,7.75,4.48,16.43,4.98,26.06,4.98,5.87,0,11.64-.48,17.32-1.44,5.68-.96,17.21-2.29,20.64-2.6v-31.91h-.87c-6.35,9.53-12.1,16.96-17.25,22.3-5.15,5.34-10.18,8.01-15.09,8.01-4.14,0-8.01-1.97-11.62-5.92-3.61-3.95-6.5-9.43-8.66-16.46-2.17-7.02-3.25-14.96-3.25-23.82s1.08-16.82,3.25-23.89,5.05-12.58,8.66-16.53c3.61-3.95,7.48-5.92,11.62-5.92,5.29,0,10.51,2.77,15.66,8.3,5.15,5.54,10.71,12.78,16.67,21.73h.87V4.19c-9.2-1-14.77-1.78-20.64-2.74-5.87-.96-11.26-1.44-16.17-1.44Z"/>
    <path class="st0" d="M559.76,72.62c-11.74,16.36-21.56,24.54-29.45,24.54h-11.12V24.69c0-3.85.36-7.44,1.08-10.76.72-3.32,1.71-7.29,2.96-11.91l.43-1.44v-.58h-37.82v.58l.43,1.44c1.25,4.62,2.24,8.59,2.96,11.91.72,3.32,1.08,6.91,1.08,10.76v54.57c0,3.85-.36,7.44-1.08,10.76-.72,3.32-1.71,7.29-2.96,11.91l-.43,1.44v.58h76.51v-33.64h-.72l-1.88,2.31Z"/>
    <path class="st0" d="M648.04,73.19c-.34.39-.75.87-1.23,1.44-4.52,5.77-9.31,10.97-14.36,15.59-5.05,4.62-10.08,6.93-15.09,6.93h-14.44v-43.31h1.3c8.28,0,18.09,2.74,29.45,8.23l1.88.72h.72v-23.68h-.72l-1.88.72c-11.36,5.49-21.17,8.23-29.45,8.23h-1.3V6.79h14c7.89,0,17.71,7.46,29.45,22.38.48.58.89,1.06,1.23,1.44.34.39.55.63.65.72h.72V0h-79.4v.58l.43,1.44c1.25,4.62,2.24,8.59,2.96,11.91.72,3.32,1.08,6.91,1.08,10.76v54.57c0,3.85-.36,7.44-1.08,10.76-.72,3.32-1.71,7.29-2.96,11.91l-.43,1.44v.58h79.83v-31.47h-.72c-.1.1-.31.34-.65.72Z"/>
    <path class="st0" d="M725.34,50.1h-11.12v.58c0,.1.1.27.29.51.19.24.43.55.72.94,2.6,3.56,4.93,7.27,7,11.12,2.07,3.85,3.1,7.7,3.1,11.55v21.12c-3.71,1.57-7.41,2.34-11.12,2.27-5.2-.09-9.6-2.07-13.21-5.92-3.61-3.85-6.35-9.24-8.23-16.17-1.88-6.93-2.82-14.96-2.82-24.11s.91-17.2,2.74-24.18c1.83-6.98,4.45-12.37,7.87-16.17,3.41-3.8,7.48-5.65,12.2-5.56,6.45.1,12.54,3.13,18.26,9.1,5.72,5.97,11.14,12.75,16.24,20.36.29.39.55.77.79,1.15.24.39.46.72.65,1.01h1.3V6.64c-7.23-1.57-13.6-3.15-20.28-4.55-6.69-1.39-12.78-2.09-18.26-2.09-10.3,0-19.59.94-27.86,5.7-8.28,4.76-14.77,11.24-19.49,19.42-4.72,8.18-7.07,17.13-7.07,26.85,0,10.39,2.24,19.66,6.71,27.79,4.48,8.13,10.63,14.46,18.48,18.98,7.84,4.52,16.67,5.2,26.49,5.2,7.6,0,15.45.51,23.53-1.66,8.08-2.17,14.87-4.59,20.36-7.29l1.59-.87v-19.35c0-5.77.72-13.33,2.17-22.67,0-.38.02-.7.07-.94.05-.24.07-.41.07-.51v-.58h-31.18Z"/>
    <path class="st0" d="M852.1,79.11l-.29-.87L822.65,0h-33.93v.58l.29.72c1.35,3.18,2.4,6.42,3.18,9.74.77,3.32.53,6.71-.72,10.18l-16.75,47.5c-2.5,6.93-5.13,13.5-7.87,19.71-2.74,6.21-5.13,11.19-7.15,14.94v.58h24.98v-.72c0-.19-.14-.62-.43-1.3-4.81-11.36-5.92-20.88-3.32-28.58l1.58-4.48h34.92l3.49,9.38c1.54,4.14,2.07,8.23,1.59,12.27-.48,4.04-1.3,7.99-2.45,11.84-.19.77-.29,1.11-.29,1.01v.58h44.61v-.58c-2.21-3.08-4.33-6.62-6.35-10.61-2.02-3.99-4-8.54-5.92-13.64ZM785.05,61.64l14.45-41.01,15.25,41.01h-29.7Z"/>
    <path class="st0" d="M945.21,70.31l-1.88,2.31c-11.74,16.36-21.56,24.54-29.45,24.54h-11.12V24.69c0-3.85.36-7.44,1.08-10.76.72-3.32,1.71-7.29,2.96-11.91l.43-1.44v-.58h-37.82v.58l.43,1.44c1.25,4.62,2.24,8.59,2.96,11.91.72,3.32,1.08,6.91,1.08,10.76v54.57c0,3.85-.36,7.44-1.08,10.76-.72,3.32-1.71,7.29-2.96,11.91l-.43,1.44v.58h76.51v-33.64h-.72Z"/>
  </g>
  <g>
    <path class="st0" d="M82.26,25.46c.25,9.87-4.97,18.54-12.86,23.19l-10.31-17.49c-1.33-2.26-4.6-2.26-5.94,0l-10.31,17.49c-7.7-4.54-12.86-12.93-12.86-22.52C29.98,11.57,41.9-.22,56.53,0c13.93.21,25.38,11.53,25.73,25.46Z"/>
    <path class="st0" d="M52.28,76.99c0,14.85-12.38,26.8-27.38,26.11C11.51,102.48.64,91.61.03,78.22c-.69-15,11.27-27.37,26.11-27.37,4.85,0,9.39,1.32,13.28,3.62l-10.22,17.33c-1.35,2.3.3,5.19,2.97,5.19h20.11Z"/>
    <path class="st0" d="M112.22,78.22c-.61,13.39-11.48,24.26-24.88,24.88-15,.69-27.38-11.26-27.38-26.11h20.11c2.67,0,4.32-2.9,2.97-5.19l-10.22-17.33c3.89-2.3,8.43-3.62,13.28-3.62,14.84,0,26.8,12.37,26.11,27.37Z"/>
  </g>
</svg>